<svg id="Layer_1" data-name="Layer 1" xmlns="http://www.w3.org/2000/svg" viewBox="0 0 16 16"><defs><style>.cls-1{fill:#fff;}.cls-2{fill:none;stroke:#fff;stroke-miterlimit:10;stroke-width:0.25px;}</style></defs><title>loader-white</title><path class="cls-1" d="M15.88,8A7.88,7.88,0,1,1,8,.12H8A7.88,7.88,0,0,1,15.88,8ZM8,2.61A5.37,5.37,0,1,0,13.38,8,5.36,5.36,0,0,0,8,2.61ZM8.79.72c0,.08.08.07.12.08a7.43,7.43,0,0,1,2.29.8,7.35,7.35,0,0,1,3,3A6.92,6.92,0,0,1,15,7.14a7.71,7.71,0,0,1,0,1.92,6.93,6.93,0,0,1-1.38,3.15A7.11,7.11,0,0,1,7,15a6.94,6.94,0,0,1-3.9-1.87A7.24,7.24,0,0,1,.85,9V8.64s0-.05,0-.06h0v.21a6.71,6.71,0,0,0,.7,2.59,7.42,7.42,0,0,0,7.84,4.06,7.22,7.22,0,0,0,3-1.17,7.49,7.49,0,0,0,3.07-8A7.32,7.32,0,0,0,9,.7.26.26,0,0,0,8.79.72ZM1.68,8A5.37,5.37,0,0,1,1.79,7,6.26,6.26,0,0,1,4.86,2.54,6.11,6.11,0,0,1,9,1.76a6.07,6.07,0,0,1,2.53.94,6.53,6.53,0,0,1,2.75,3.87,2.42,2.42,0,0,0,.1.45c0,.15,0,.08.07.08a.05.05,0,0,0,.07,0,.06.06,0,0,0,0-.07h0a2.78,2.78,0,0,0-.12-.64,6.62,6.62,0,0,0-13,.86,6.54,6.54,0,0,0,.36,3.07A6.44,6.44,0,0,0,5.28,14a6.27,6.27,0,0,0,2,.51h.1l-.09-.06h0a6.06,6.06,0,0,1-2.4-.85A6.42,6.42,0,0,1,1.68,8ZM8.79,2.21c.06.07.15.06.22.07a5.81,5.81,0,0,1,4.34,3.81,5.59,5.59,0,0,1,.27,2.5,5.65,5.65,0,0,1-.9,2.41A5.6,5.6,0,0,1,6.4,13.41,5.86,5.86,0,0,1,2.34,9.17a3.57,3.57,0,0,0-.11-.55c0-.18,0-.07,0-.07s0,0,0,.08v.06a5.29,5.29,0,0,0,.13.78,5.92,5.92,0,0,0,7,4.39,5.71,5.71,0,0,0,4-3,5.81,5.81,0,0,0,.58-4.28A6.1,6.1,0,0,0,10,2.4a4.07,4.07,0,0,0-1.1-.23S8.82,2.14,8.79,2.21ZM7.33.71a.29.29,0,0,0-.13,0L6.56.77a6.9,6.9,0,0,0-2.63,1A7.19,7.19,0,0,0,1.24,5,6.54,6.54,0,0,0,.73,6.87v.18H.78L.85,7a6.94,6.94,0,0,1,1-2.71A7.45,7.45,0,0,1,6.85.9L7.27.78C7.32.78,7.36.77,7.33.71Z"/><circle class="cls-2" cx="8" cy="8" r="7.88"/></svg>