<svg xmlns="http://www.w3.org/2000/svg" viewBox="0 0 24 24"><defs><style>.cls-1{fill:#ee2b36;}.cls-1,.cls-2{stroke:#000;stroke-miterlimit:10;}.cls-2{fill:none;stroke-linecap:round;}</style></defs><title>angry-icon</title><g id="Layer_2" data-name="Layer 2"><circle class="cls-1" cx="12" cy="12" r="10.04"/><ellipse cx="9.92" cy="12.38" rx="0.76" ry="0.88" transform="translate(-2.85 21.79) rotate(-87.66)"/><ellipse cx="13.95" cy="12.38" rx="0.76" ry="0.88" transform="translate(1.01 25.82) rotate(-87.66)"/><path d="M6.15,8.63s2.48,2.9,4.41,2.64.14,1.29-1.26.73S6.15,8.63,6.15,8.63"/><path d="M17.85,8.63s-2.48,2.9-4.41,2.64-.14,1.29,1.26.73,3.15-3.37,3.15-3.37"/><path class="cls-2" d="M9.64,16.73a3.29,3.29,0,0,1,2.79-1.8,2.9,2.9,0,0,1,2.8,1.8"/></g></svg>