<svg xmlns="http://www.w3.org/2000/svg" viewBox="0 0 24 24"><defs><style>.cls-1{fill:#ebebeb;stroke:#f7f7f7;stroke-miterlimit:10;}.cls-2{fill:#a8a6a7;}</style></defs><title>user-icon-group</title><g id="Layer_2" data-name="Layer 2"><circle class="cls-1" cx="12" cy="12" r="11.52"/><circle class="cls-2" cx="12.07" cy="8.27" r="2.69"/><path class="cls-2" d="M12.07,11.58A4.64,4.64,0,0,0,7.65,16.4a5.52,5.52,0,0,0,0,.71,7,7,0,0,0,4.37,1.39,7,7,0,0,0,4.37-1.39,5.52,5.52,0,0,0,0-.71A4.64,4.64,0,0,0,12.07,11.58Z"/><path class="cls-2" d="M15.81,10.57a3.5,3.5,0,0,0-2,.66,5.68,5.68,0,0,1,3.55,5,5.42,5.42,0,0,0,2.19-1,5.66,5.66,0,0,0,0-.6A3.92,3.92,0,0,0,15.81,10.57Z"/><path class="cls-2" d="M15.81,5.5a2.26,2.26,0,0,0-1.3.41,3.39,3.39,0,0,1,1,2.36,3.47,3.47,0,0,1-.42,1.64,2.09,2.09,0,0,0,.76.13,2.27,2.27,0,0,0,0-4.54Z"/><path class="cls-2" d="M8.19,10.57a3.5,3.5,0,0,1,2,.66,5.68,5.68,0,0,0-3.55,5,5.42,5.42,0,0,1-2.19-1,5.66,5.66,0,0,1,0-.6A3.92,3.92,0,0,1,8.19,10.57Z"/><path class="cls-2" d="M8.19,5.5a2.26,2.26,0,0,1,1.3.41,3.39,3.39,0,0,0-1,2.36A3.47,3.47,0,0,0,9,9.91a2.09,2.09,0,0,1-.76.13,2.27,2.27,0,0,1,0-4.54Z"/></g></svg>