<svg xmlns="http://www.w3.org/2000/svg" viewBox="0 0 24 24"><defs><style>.cls-1{fill:#fff;}</style></defs><title>zoom-02</title><g id="Layer_2" data-name="Layer 2"><path class="cls-1" d="M5.57,17a3.5,3.5,0,1,1,3.51-3.5A3.5,3.5,0,0,1,5.57,17Zm0-6.49a3,3,0,1,0,3,3A3,3,0,0,0,5.57,10.48Z"/><path class="cls-1" d="M5.74,15.62a.26.26,0,1,1,0-.52,1.63,1.63,0,0,0,1.63-1.63.26.26,0,1,1,.51,0A2.15,2.15,0,0,1,5.74,15.62Z"/><path class="cls-1" d="M18.43,17a3.5,3.5,0,1,1,3.5-3.5A3.51,3.51,0,0,1,18.43,17Zm0-6.49a3,3,0,1,0,3,3A3,3,0,0,0,18.43,10.48Z"/><path class="cls-1" d="M18.59,15.62a.26.26,0,0,1,0-.52,1.63,1.63,0,0,0,1.63-1.63.26.26,0,0,1,.52,0A2.16,2.16,0,0,1,18.59,15.62Z"/><path class="cls-1" d="M12,11.72a1.55,1.55,0,1,1,1.55-1.55A1.55,1.55,0,0,1,12,11.72Zm0-2.59a1,1,0,1,0,1,1A1,1,0,0,0,12,9.13Z"/><path class="cls-1" d="M20.62,9.15a3.29,3.29,0,0,0-2.95-1.76h-.21a2,2,0,0,0-2-1.66H8.66a2.06,2.06,0,0,0-2,1.66H6.41A3.32,3.32,0,0,0,3.69,8.77a4.29,4.29,0,0,0-.23.38h0a4.79,4.79,0,1,0,6.88,4.52h3.28a4.8,4.8,0,1,0,7-4.53Zm-12-2.91h6.76a1.55,1.55,0,0,1,1.52,1.15H7.14A1.55,1.55,0,0,1,8.66,6.24ZM6.41,7.9H17.67a2.8,2.8,0,0,1,2.09.91,4.55,4.55,0,0,0-1.33-.19,4.8,4.8,0,0,0-4.79,4.54H10.36A4.8,4.8,0,0,0,5.57,8.67a4.55,4.55,0,0,0-1.28.18A2.81,2.81,0,0,1,6.41,7.9Zm-.84,9.86a4.29,4.29,0,1,1,4.29-4.29A4.29,4.29,0,0,1,5.57,17.76Zm12.86-.05a4.29,4.29,0,1,1,0-8.58,4.36,4.36,0,0,1,1.94.46,4.3,4.3,0,0,1-1.94,8.12Z"/></g></svg>